<svg xmlns="http://www.w3.org/2000/svg" xmlns:xlink="http://www.w3.org/1999/xlink" width="100%" height="100%" version="1.1" viewBox="0 0 128 32" xml:space="preserve" style="fill-rule:evenodd;clip-rule:evenodd;stroke-linecap:round;stroke-linejoin:round;stroke-miterlimit:1.5"><g id="heart" transform="matrix(4,0,0,1,0,0)"><rect width="32" height="32" x="0" y="0" style="fill:none"/><g><path d="M23.322,20.416L23.322,1.894L11.443,1.894L11.443,20.416L8.582,20.416L11.443,24.001L11.443,24.784L12.068,24.784L17.383,31.445L22.697,24.784L23.322,24.784L23.322,24.001L26.183,20.416L23.322,20.416Z" transform="matrix(0.25,0,0,0.961049,0.00833333,-0.0203618)" style="stroke:#ebebeb;stroke-width:2.04px"/></g><g><g><g><text x="0" y="0" transform="matrix(0.558974,0,0,2.2359,-14.1835,7.40918) matrix(1,0,0,1,45.479,8.137)" style="font-family:'ArialMT','Arial',sans-serif;font-size:12px;fill:#ebebeb">S</text></g><g><text x="0" y="0" transform="matrix(0.558974,0,0,2.2359,-14.1835,7.40918) matrix(1,0,0,1,52.753,8.137)" style="font-family:'ArialMT','Arial',sans-serif;font-size:12px;fill:#ebebeb">A<tspan x="7.113 15.117" y="0 0">VE</tspan></text></g></g></g></g></svg>